<?xml version="1.0" encoding="utf-8"?>
<!-- Generator: Adobe Illustrator 26.5.2, SVG Export Plug-In . SVG Version: 6.00 Build 0)  -->
<svg version="1.1" id="Layer_1" xmlns="http://www.w3.org/2000/svg" xmlns:xlink="http://www.w3.org/1999/xlink" x="0px" y="0px"
	 viewBox="0 0 144 165.6" style="enable-background:new 0 0 144 165.6;" xml:space="preserve">
<g>
	<path d="M124,93c-20.8,1.3-32.1,3.2-38.9,9.7c-10.7,10.1-11.7,16.8-13.3,55.9c-1.6-39.1-2.7-45.8-13.3-55.9
		c-6.8-6.5-18.1-8.4-38.9-9.7c20.8-1.3,32.1-3.2,38.9-9.7c10.7-10.1,11.7-16.8,13.3-55.9c1.6,39.1,2.7,45.8,13.3,55.9
		C91.9,89.8,103.2,91.8,124,93z"/>
	<path d="M61.8,36.1c-9.6,0.6-14.8,1.5-17.9,4.4c-4.9,4.6-5.4,7.7-6.1,25.7c-0.7-18-1.2-21.1-6.1-25.7c-3.1-3-8.3-3.9-17.9-4.4
		c9.6-0.6,14.8-1.5,17.9-4.4C36.5,27.1,37,24,37.7,6c0.7,18,1.2,21.1,6.1,25.7C47,34.7,52.2,35.6,61.8,36.1z"/>
	<path d="M124,135.1c-3.8,0.2-5.9,0.6-7.1,1.8c-2,1.9-2.2,3.1-2.4,10.3c-0.3-7.2-0.5-8.4-2.4-10.3c-1.3-1.2-3.3-1.5-7.1-1.8
		c3.8-0.2,5.9-0.6,7.1-1.8c2-1.9,2.2-3.1,2.4-10.3c0.3,7.2,0.5,8.4,2.4,10.3C118.1,134.5,120.2,134.9,124,135.1z"/>
</g>
</svg>
